# xmcd
#
# Track frame offsets: 
#        150
#        19085
#        40722
#        45135
#        62657
#        78467
#        90095
#        97900
#        115815
#        133270
#        147957
#        167435
#        189415
#        225167
#        245215
#        274280
#
# Disc length: 4440 seconds
#
# Revision: 0
# Processed by: cddbd v1.5PL3 Copyright (c) Steve Scherf et al.
# Submitted via: ExactAudioCopy v0.90b4
#
DISCID=c2115610
DTITLE=TETSUYA KOMURO - PIANO globe
DYEAR=2003
DGENRE=Classical
TTITLE0=DEPARTURES(Apf version)
TTITLE1=Wanderin' Destiny(Apf version)
TTITLE2=can't stop PIANO SOLO
TTITLE3=genesis of next(piano only)
TTITLE4=LIGHTS OUT
TTITLE5=overdose
TTITLE6=before dark
TTITLE7=end of 3rd element
TTITLE8=Piano solo
TTITLE9=to be continued 2000
TTITLE10=Many Classic Moments(epilogue)
TTITLE11=Cyborg 009 theme2
TTITLE12=genesis of next(orchestra version)
TTITLE13=Injection(orchestra version)
TTITLE14=on the way to YOU(Apf version)
TTITLE15=data
EXTD=
EXTT0=
EXTT1=
EXTT2=
EXTT3=
EXTT4=
EXTT5=
EXTT6=
EXTT7=
EXTT8=
EXTT9=
EXTT10=
EXTT11=
EXTT12=
EXTT13=
EXTT14=
EXTT15=
PLAYORDER=
